PathFileType	4	(X/Y/Z)	pose2sim_150-449.trc
DataRate	CameraRate	NumFrames	NumMarkers	Units	OrigDataRate	OrigDataStartFrame	OrigNumFrames
50	50	9	22	m	50	337	300
Frame#	Time	Hip			RHip			RKnee			RAnkle			RBigToe			RSmallToe			RHeel			LHip			LKnee			LAnkle			LBigToe			LSmallToe			LHeel			Neck			Head			Nose			RShoulder			RElbow			RWrist			LShoulder			LElbow			LWrist			
		X1	Y1	Z1	X2	Y2	Z2	X3	Y3	Z3	X4	Y4	Z4	X5	Y5	Z5	X6	Y6	Z6	X7	Y7	Z7	X8	Y8	Z8	X9	Y9	Z9	X10	Y10	Z10	X11	Y11	Z11	X12	Y12	Z12	X13	Y13	Z13	X14	Y14	Z14	X15	Y15	Z15	X16	Y16	Z16	X17	Y17	Z17	X18	Y18	Z18	X19	Y19	Z19	X20	Y20	Z20	X21	Y21	Z21	X22	Y22	Z22	
337	6.74	0.13486060753578533	0.9785383570568126	-0.0633041891598497	0.031126822271492837	0.9588079314219004	-0.05925057786518611	0.016120322240782293	0.5191778034201887	-0.07179051689365423	0.0008361605608803392	0.09432648581426553	-0.09603205227499723	0.014860004699323541	0.033133624193881966	0.09235683846391028	-0.040903282187070435	0.03451000446456746	0.04891758298057	0.006998142448219242	0.04874568057030731	-0.12924232652059883	0.23666477515114817	0.9567981697985632	-0.07241371330380374	0.23969248482038516	0.5179877616715146	-0.11102265948966109	0.24437356442832375	0.08914372637893431	-0.1157238974654471	0.27170405231403355	0.03466073054896758	0.07237099896842566	0.31590110047741055	0.03442209714206647	0.006565034405035298	0.23117350793796848	0.04329391896861059	-0.1485494641494277	0.1490344265341561	1.576574437647502	-0.120273685094426	0.14430627091019477	1.8242928948537274	-0.08325591484188313	0.14351771867686916	1.693216673085289	0.05197523668086068	-0.00862529172322777	1.4753349293691742	-0.11783096207754916	-0.0843945114258011	1.2595994741448582	0.05980498525372442	-0.12189846851581448	1.3975473527564035	0.32491076030814026	0.3085411640251006	1.4705305053345155	-0.13250357640095906	0.4044783956542975	1.2490081325241282	0.003509205395065256	0.4568037987054039	1.379285888757233	0.22472260520694204
338	6.76	0.1330921323113423	0.9855749259543769	-0.0591690095158282	0.032115716851272166	0.9605554705027068	-0.04949442373773835	0.01646173349138971	0.5168237077927822	-0.07395894461409844	0.0019652475240513425	0.09334776354387944	-0.09240831157313714	0.006151972724368265	0.043118182686086685	0.11339569751290311	-0.04430458412026458	0.04020849449795822	0.056944936651119535	0.01348860900359425	0.046827108031939665	-0.12321923936019874	0.23687114578161703	0.962412637075275	-0.06103667703928955	0.24211242276447761	0.513604643596472	-0.1083234247098621	0.24322411880209277	0.0903204586592291	-0.11476288078354552	0.27241998452969823	0.04334024906062459	0.08569504661153887	0.30931953539937285	0.03902945525269627	0.032003669447844794	0.2310614711767274	0.04402304413777089	-0.13931501878638275	0.14363565363238215	1.5775144272005284	-0.12031330921355272	0.14601035201327367	1.823910356003356	-0.0764552777384012	0.14141621088769207	1.6947315703910235	0.04612980765798762	-0.010748020515194915	1.4756272535142	-0.11689569621740804	-0.0877107838860564	1.259153671600094	0.06403231798378704	-0.1403852399889848	1.3921106048258245	0.29895093833863323	0.30934087722427855	1.4749979849614627	-0.13789457810621672	0.4116633847546489	1.2519853213351126	0.010338684177854012	0.4661324570190051	1.371867530625939	0.22102299898702069
339	6.78	0.13272842485156816	0.9803328935165492	-0.06814207176970877	0.03286205000787354	0.9622647919181037	-0.056010574595528544	0.012992550580598247	0.517372501038384	-0.07282836493471438	0.0010245913794096994	0.08996695321895168	-0.08972741834450158	0.015436699845923536	0.03476527910452574	0.08956351884139657	-0.043485108313160756	0.03639682102014689	0.04639999676729238	0.008662012775430371	0.047726624904620644	-0.12976390384358655	0.23885528969601963	0.9573931030184779	-0.0733953400997224	0.24150511446494802	0.517379524144981	-0.11067349218762056	0.24452453444145042	0.0863369759620109	-0.11888560904067652	0.2706661921866727	0.03614816192511166	0.07519610671639357	0.3158685706175755	0.03483806500729015	0.011332248579779828	0.23004892787378697	0.042177455921278674	-0.15049980148997577	0.1471914622885546	1.5742258830044753	-0.11883822726595566	0.14100233486130057	1.8262584582149262	-0.0848257746798619	0.14091803966670557	1.6944094052273089	0.045505542353559865	-0.01117943446959993	1.4766298390886599	-0.11914219426783534	-0.08972848937221041	1.2576414996632457	0.05004915896570706	-0.1541705317189648	1.3653274872865229	0.2826537347179067	0.30997646740195933	1.468467241795062	-0.14118403506469113	0.4083422678941486	1.2463540562505397	-0.0006492037854238276	0.4797895289313043	1.351906244948157	0.23318208113752825
340	6.8	0.13349432966326774	0.9786037158404435	-0.07182563220089239	0.031712130359685196	0.9587712493211463	-0.05604389805469849	0.01462876950458019	0.5183433148455293	-0.07378227838790079	0.0011585747918640905	0.09108543762203115	-0.08922448202364544	0.0125717889948175	0.03256779623657401	0.09160861314095775	-0.045275343659806795	0.038563442889335824	0.050878469921266024	0.008936502110551981	0.047052332229929016	-0.1279086912738962	0.23758384352489736	0.9550772540574675	-0.06841953881123239	0.2418028831183717	0.5168482834923588	-0.10812764673185052	0.2464357265031622	0.08600882740626273	-0.11703029816718798	0.2708181216606544	0.036068966277956534	0.06949297473096354	0.31444734712036077	0.03565111873638218	0.007837963057055211	0.23359776005415606	0.04164564197373178	-0.1434056829342492	0.1463013302785532	1.5748477160180743	-0.12610590604607735	0.14189875803771962	1.8255305558915813	-0.08220293703754127	0.137743569387463	1.6931246157246391	0.053869471832176434	-0.009883839923144311	1.4763504690255345	-0.11918309415469987	-0.0909853484668895	1.2599601134919733	0.04182958965450638	-0.16015331319597317	1.3492403221641214	0.28041683516434895	0.30878566941102	1.4698799841537349	-0.14538297923676938	0.4105657084230783	1.2437373348401084	-0.011855154561325815	0.48863746221957444	1.3369689091100923	0.2411298808171599
341	6.82	0.13286082885561692	0.977708862094204	-0.06882836744376611	0.032313814532817745	0.9584839870063463	-0.06341444025836832	0.013907309319577486	0.5166257397074429	-0.07445104788722999	0.002294153609194379	0.0915447214396204	-0.08828286824563097	0.011207401648010294	0.03574084024572836	0.08768019275508283	-0.04228853314503384	0.0369958963434517	0.05549186397018515	0.008432332007554921	0.048907695796762206	-0.1264053228606712	0.23644491188609257	0.9545550531390374	-0.0730242129026075	0.2409337769494685	0.5150330109495445	-0.10889284439906807	0.24416373240264327	0.08940227724868037	-0.11989259966591732	0.26873773275525403	0.03539875741666236	0.07522240875276295	0.31444644089893536	0.03622865442450903	0.01112578753769661	0.2337008694790098	0.043746370809742516	-0.1524587659733483	0.14561273215278334	1.577310134835173	-0.12389046678998507	0.14101260124771214	1.8253037726572432	-0.08604397849566407	0.13338942632580209	1.6956219776688348	0.03546343750130555	-0.008402400565151583	1.4777647111399619	-0.11350742057734135	-0.09291216295803152	1.2591755750391844	0.03893409470670406	-0.17806774563581795	1.330858392600039	0.2603337482769851	0.3049707686947054	1.4700454975123023	-0.1435545536469498	0.410831972735732	1.2425355317973756	-0.014239899840842748	0.49781291583516546	1.3217492341493053	0.24537223090144997
342	6.84	0.13357750970684798	0.986404842458925	-0.06588235278793722	0.030120533140792903	0.9610782993802802	-0.05583581421051693	0.015017889400575845	0.5162201329031569	-0.07871037632785277	0.0020586002101231644	0.0914978154836176	-0.09048098624272052	0.005040084765082382	0.04440362392510453	0.11741752267773248	-0.04314560068740219	0.03989562463254895	0.06563251313128657	0.010793969623012229	0.04674311981587087	-0.12535888361062866	0.2352690209773561	0.9617768478850889	-0.06844763199094336	0.24078512399972132	0.5143367809858308	-0.10977880769485451	0.24498952855043224	0.09096330643557739	-0.11503967356645371	0.2717604881079687	0.04288603529973364	0.08238939991901852	0.31217469456584485	0.03993413810639481	0.025291488394477132	0.2314184453627013	0.0426547192069785	-0.13541538308933668	0.1433238200002464	1.577494089786548	-0.12170587622095823	0.14695654617503534	1.8224691863365379	-0.07566269226658158	0.13882452754371055	1.6938728429557264	0.03956646319700848	-0.015022153962637076	1.4767894559963708	-0.1210810275167182	-0.09128759134334935	1.2570853564364528	0.042083126556356834	-0.18608917455437235	1.308379970850935	0.24459374774289627	0.30508598035824747	1.473973322115171	-0.14207059806896824	0.4100201393810396	1.2478748808884932	-0.0074678089448637335	0.5122362691213705	1.3058410641874825	0.21250865737648428
343	6.86	0.13437446944543222	0.979546895261308	-0.06861425168522385	0.03143602015552674	0.9598215516345902	-0.05701436336723099	0.014818550402111969	0.513857959707446	-0.07268901685967402	0.0028318155617904454	0.09095480207747231	-0.09103178386936676	0.011544382094344642	0.03373125171173552	0.08643753458784993	-0.042288732675777194	0.038078913077719156	0.0528254610052475	0.012436415121117908	0.04727648059444582	-0.12678634161924957	0.23430787243974224	0.956282637995993	-0.07320985843955474	0.24165307673494973	0.5166489018372568	-0.11133818061270007	0.24699209968143335	0.0870713227250462	-0.11284996307576572	0.27108263019811923	0.03570849994437139	0.07387551743517948	0.31400511348384547	0.03531193356486813	0.011872421347867663	0.23324064983656775	0.043350801028043486	-0.14648301206681968	0.1457044656115294	1.5771023575851226	-0.12088652131414268	0.1414011411005146	1.8262376516731356	-0.0841338591786439	0.13559263412357178	1.6929622013473369	0.04225741141906469	-0.012509297521399732	1.4779728779719226	-0.12026044029893027	-0.08975157373380521	1.2564591731604158	0.03307814915112299	-0.1719083956940816	1.2927059127935325	0.29503658249651304	0.3043131595887912	1.4704689526605097	-0.14052564752288096	0.4080763649830901	1.2439350536242941	-0.015806237610853226	0.5076744042785459	1.286510865269997	0.2358872145642492
344	6.88	0.13175454486751403	0.975777882507978	-0.07118167940042538	0.029704258788418945	0.96013102531875	-0.061333324010516055	0.013060226356261221	0.5186705486374097	-0.06960954156204181	0.0012317780977091463	0.09210545089867131	-0.08711022723563402	0.009023381408816712	0.03463142338923248	0.08682639899543904	-0.04170797614653499	0.03899323693046654	0.0528327599188396	0.009595087769027537	0.04947554718538478	-0.12290756227143511	0.23794138601665407	0.9580868706905866	-0.07561354360355658	0.23969402650965502	0.5158260473883065	-0.11092473701800462	0.24617990925705188	0.08823660450251943	-0.11633915721079821	0.27144851360922945	0.03671866036842344	0.0699570382717297	0.31551397177140755	0.03628274040071433	0.008140472732226857	0.23301575891509368	0.04261343423625696	-0.14459495189933924	0.14492363772228217	1.5791396844809291	-0.11805743064594211	0.1422057440134287	1.825748071083319	-0.07716572466361216	0.13126275488483122	1.6951756028496423	0.04440390823854774	-0.014459280652416456	1.476755249725993	-0.1168951159141591	-0.09142875620065283	1.2546473332604695	0.023655244382659753	-0.16571265073638822	1.2663159341815606	0.2973214802216992	0.3020019855138528	1.472326829332698	-0.1473036277267151	0.41213539541172434	1.2386304578641412	-0.033285780003467824	0.5055976693165766	1.2670102653384692	0.2356285867335429
345	6.9	0.13313816445197205	0.975552857392361	-0.06631904438929355	0.032344879773082126	0.9614752900057252	-0.0540391308328075	0.013887761214467779	0.5158115721126163	-0.06959765754470106	0.0006396307054592858	0.09271247041468088	-0.0898699801928358	0.011169998647971822	0.03515230989123705	0.08411112909671596	-0.04227055974061142	0.0395709951816723	0.050206191662862026	0.012298026460150793	0.04992417265475602	-0.12225078210562927	0.2371633382263147	0.9577070784599115	-0.0733492403696691	0.23937486214771975	0.5159561992626749	-0.10821091328281808	0.24551654027189662	0.09044927252865455	-0.1162744269870523	0.2723783837917526	0.0376219293422975	0.06895560032474411	0.3163232563667671	0.03713370633856026	0.007921674341531364	0.232307004899648	0.04613440209734474	-0.14803810689498076	0.1429560068319685	1.5789481423295912	-0.11601660890805358	0.14166250692466792	1.8254018239607288	-0.07186177524085965	0.133965021308225	1.692897006997794	0.0608117714217105	-0.014746208134943041	1.473888607602204	-0.11217300645781769	-0.088731319771651	1.2485600019031737	0.021655335159210816	-0.16109910660754473	1.2521570115008986	0.3066471487819414	0.3029657608453199	1.473115879207285	-0.13896924583136414	0.4125962103338603	1.2379204918125373	-0.03541026621151035	0.5047888238642525	1.2502484265613802	0.23149141579059607
